<svg width="3" height="15" viewBox="0 0 3 15" fill="none" xmlns="http://www.w3.org/2000/svg">
<path d="M0.0263062 1.66667C0.0263062 1.97609 0.181569 2.27283 0.457938 2.49162C0.734307 2.71042 1.10915 2.83333 1.49999 2.83333C1.89084 2.83333 2.26567 2.71042 2.54204 2.49162C2.81841 2.27283 2.97367 1.97609 2.97367 1.66667C2.97367 1.35725 2.81841 1.0605 2.54204 0.841709C2.26567 0.622916 1.89084 0.5 1.49999 0.5C1.10915 0.5 0.734307 0.622916 0.457938 0.841709C0.181569 1.0605 0.0263062 1.35725 0.0263062 1.66667ZM0.0263062 7.5C0.0263062 7.80942 0.181569 8.10617 0.457938 8.32496C0.734307 8.54375 1.10915 8.66667 1.49999 8.66667C1.89084 8.66667 2.26567 8.54375 2.54204 8.32496C2.81841 8.10617 2.97367 7.80942 2.97367 7.5C2.97367 7.19058 2.81841 6.89383 2.54204 6.67504C2.26567 6.45625 1.89084 6.33333 1.49999 6.33333C1.10915 6.33333 0.734307 6.45625 0.457938 6.67504C0.181569 6.89383 0.0263062 7.19058 0.0263062 7.5ZM0.0263062 13.3333C0.0263062 13.6428 0.181569 13.9395 0.457938 14.1583C0.734307 14.3771 1.10915 14.5 1.49999 14.5C1.89084 14.5 2.26567 14.3771 2.54204 14.1583C2.81841 13.9395 2.97367 13.6428 2.97367 13.3333C2.97367 13.0239 2.81841 12.7272 2.54204 12.5084C2.26567 12.2896 1.89084 12.1667 1.49999 12.1667C1.10915 12.1667 0.734307 12.2896 0.457938 12.5084C0.181569 12.7272 0.0263062 13.0239 0.0263062 13.3333Z" fill="#AAAAAA"/>
</svg>
