<svg width="21" height="20" viewBox="0 0 21 20" fill="none" xmlns="http://www.w3.org/2000/svg">
<path fill-rule="evenodd" clip-rule="evenodd" d="M14.9167 1C14.9167 0.447716 15.3644 0 15.9167 0H19.25C19.8023 0 20.25 0.447715 20.25 1V19C20.25 19.5523 19.8023 20 19.25 20H15.9167C15.3644 20 14.9167 19.5523 14.9167 19V1ZM18.95 18.7H16.2167V1.3H18.95V18.7Z" fill="#58C76A"/>
<path fill-rule="evenodd" clip-rule="evenodd" d="M8.58333 5C8.03105 5 7.58333 5.44772 7.58333 6V19C7.58333 19.5523 8.03105 20 8.58333 20H11.9167C12.469 20 12.9167 19.5523 12.9167 19V6C12.9167 5.44772 12.469 5 11.9167 5H8.58333ZM8.88333 6.3V18.7H11.6167V6.3H8.88333Z" fill="#58C76A"/>
<path fill-rule="evenodd" clip-rule="evenodd" d="M1.25 10C0.697715 10 0.25 10.4477 0.25 11V19C0.25 19.5523 0.697716 20 1.25 20H4.58333C5.13562 20 5.58333 19.5523 5.58333 19V11C5.58333 10.4477 5.13562 10 4.58333 10H1.25ZM1.55 11.3V18.7H4.28333V11.3H1.55Z" fill="#58C76A"/>
</svg>
