<svg width="20" height="22" viewBox="0 0 20 22" fill="none" xmlns="http://www.w3.org/2000/svg">
<g clip-path="url(#clip0_1_851)">
<path d="M12.0317 0.739014C12.1869 0.739019 12.338 0.788273 12.4634 0.879682C12.5888 0.971092 12.682 1.09994 12.7295 1.24767L13.5357 3.75284C13.8743 3.91849 14.1983 4.10465 14.5076 4.31427L17.0816 3.76017C17.2334 3.72777 17.3915 3.74438 17.5333 3.8076C17.675 3.87082 17.793 3.9774 17.8703 4.11198L19.902 7.6286C19.9795 7.76311 20.0124 7.91877 19.9958 8.07316C19.9792 8.22754 19.914 8.37267 19.8096 8.4876L18.0432 10.4372C18.069 10.8111 18.069 11.1862 18.0432 11.5601L19.8096 13.5126C19.914 13.6275 19.9792 13.7727 19.9958 13.9271C20.0124 14.0814 19.9795 14.2371 19.902 14.3716L17.8703 17.8897C17.7928 18.024 17.6747 18.1303 17.533 18.1932C17.3913 18.2562 17.2332 18.2726 17.0816 18.24L14.5076 17.6859C14.1997 17.8941 13.8743 18.0817 13.5371 18.2474L12.7295 20.7525C12.682 20.9003 12.5888 21.0291 12.4634 21.1205C12.338 21.2119 12.1869 21.2612 12.0317 21.2612H7.9683C7.81313 21.2612 7.66196 21.2119 7.53657 21.1205C7.41118 21.0291 7.31803 20.9003 7.27055 20.7525L6.46579 18.2488C6.12809 18.0837 5.80236 17.8951 5.49098 17.6845L2.91838 18.24C2.76661 18.2724 2.60847 18.2558 2.46675 18.1926C2.32502 18.1294 2.20702 18.0228 2.12974 17.8882L0.0980457 14.3716C0.0204638 14.2371 -0.0123975 14.0814 0.00420008 13.9271C0.0207977 13.7727 0.0859965 13.6275 0.190395 13.5126L1.95677 11.5601C1.93117 11.1872 1.93117 10.813 1.95677 10.4401L0.190395 8.4876C0.0859965 8.37267 0.0207977 8.22754 0.00420008 8.07316C-0.0123975 7.91877 0.0204638 7.76311 0.0980457 7.6286L2.12974 4.11052C2.20723 3.9762 2.32533 3.86993 2.46704 3.80698C2.60874 3.74402 2.76677 3.72764 2.91838 3.76017L5.49098 4.31574C5.80175 4.10612 6.12717 3.91702 6.46579 3.75138L7.27202 1.24767C7.31934 1.10042 7.41205 0.971909 7.53685 0.880543C7.66165 0.789178 7.81217 0.739638 7.96684 0.739014H12.0302H12.0317ZM11.4952 2.20488H8.50481L7.6722 4.79508L7.11077 5.06919C6.83477 5.20425 6.56833 5.35804 6.31334 5.52948L5.79442 5.88129L3.1324 5.30667L1.63721 7.89832L3.46222 9.91829L3.41824 10.5398C3.39717 10.8463 3.39717 11.1539 3.41824 11.4604L3.46222 12.0819L1.63428 14.1019L3.13093 16.6935L5.79295 16.1204L6.31187 16.4707C6.56687 16.6422 6.8333 16.796 7.1093 16.931L7.67073 17.2051L8.50481 19.7953H11.4981L12.3337 17.2037L12.8936 16.931C13.1693 16.7963 13.4353 16.6425 13.6896 16.4707L14.207 16.1204L16.8705 16.6935L18.3657 14.1019L16.5392 12.0819L16.5832 11.4604C16.6044 11.1534 16.6044 10.8453 16.5832 10.5384L16.5392 9.91683L18.3672 7.89832L16.8705 5.30667L14.207 5.87836L13.6896 5.52948C13.4353 5.35772 13.1693 5.20392 12.8936 5.06919L12.3337 4.79654L11.4967 2.20488H11.4952ZM10 6.60249C11.1663 6.60249 12.2849 7.06581 13.1096 7.89053C13.9343 8.71524 14.3976 9.83379 14.3976 11.0001C14.3976 12.1664 13.9343 13.285 13.1096 14.1097C12.2849 14.9344 11.1663 15.3977 10 15.3977C8.83368 15.3977 7.71513 14.9344 6.89042 14.1097C6.06571 13.285 5.60239 12.1664 5.60239 11.0001C5.60239 9.83379 6.06571 8.71524 6.89042 7.89053C7.71513 7.06581 8.83368 6.60249 10 6.60249ZM10 8.06837C9.22245 8.06837 8.47675 8.37724 7.92695 8.92705C7.37714 9.47686 7.06826 10.2226 7.06826 11.0001C7.06826 11.7777 7.37714 12.5234 7.92695 13.0732C8.47675 13.623 9.22245 13.9318 10 13.9318C10.7775 13.9318 11.5232 13.623 12.0731 13.0732C12.6229 12.5234 12.9317 11.7777 12.9317 11.0001C12.9317 10.2226 12.6229 9.47686 12.0731 8.92705C11.5232 8.37724 10.7775 8.06837 10 8.06837Z" fill="#333333"/>
</g>
<defs>
<clipPath id="clip0_1_851">
<rect width="20" height="20.5222" fill="white" transform="translate(0 0.739014)"/>
</clipPath>
</defs>
</svg>
